<svg width="20" height="44" viewBox="0 0 20 44" fill="none" xmlns="http://www.w3.org/2000/svg">
<path d="M16.75 15H3.25C2.00736 15 1 16.0074 1 17.25V39.75C1 40.9926 2.00736 42 3.25 42H16.75C17.9926 42 19 40.9926 19 39.75V17.25C19 16.0074 17.9926 15 16.75 15Z" stroke="black" stroke-width="2"/>
<path d="M1.04316 11.015L18.9554 8.90787" stroke="black" stroke-width="2" stroke-linecap="round"/>
<path d="M7.19462 10.363L7.02032 8.59516C6.92446 7.62284 8.18688 6.64116 9.8257 6.41365C11.4645 6.18615 12.8838 6.79555 12.9797 7.76787L13.154 9.53573" stroke="black" stroke-width="2"/>
<path d="M6 24V34" stroke="black" stroke-width="1.5" stroke-linecap="round"/>
<path d="M10 24V34" stroke="black" stroke-width="1.5" stroke-linecap="round"/>
<path d="M14 24V34" stroke="black" stroke-width="1.5" stroke-linecap="round"/>
</svg>
