<svg width="44" height="44" viewBox="0 0 44 44" fill="none" xmlns="http://www.w3.org/2000/svg">
<path d="M14.4445 9.32233C17.7036 7.28556 21.8559 7.75441 25.8713 9.68854C27.428 9.4057 30.1744 8.91006 31.6477 9.47565C34.5351 10.5309 36.6339 12.7385 37.0285 14.9805C37.81 15.3756 38.4502 15.9932 38.8635 16.751C39.7282 18.3354 39.8498 19.9232 39.2678 21.2061C39.8159 22.277 39.9974 23.4913 39.7844 24.67C39.663 25.4561 39.3556 26.2047 38.8869 26.8555C38.4183 27.5062 37.8013 28.0419 37.0842 28.42C36.8857 28.5274 34.5887 28.6167 34.3713 28.6885C34.6443 32.2168 30.9868 33.5005 27.8889 32.6602L29.0403 36.586L26.0803 36.6885L23.8713 31.6885L21.8713 29.6885C20.125 30.1697 17.0919 30.168 15.76 28.0831C15.639 27.8916 15.5299 27.693 15.4319 27.4893C15.0931 27.5567 14.7474 27.5909 14.4016 27.5919C13.415 27.5918 11.771 27.3037 10.9358 26.7393C10.2736 26.3112 9.74862 25.7095 9.42014 25.004C7.64097 25.2413 6.13134 24.8334 5.14474 23.8262C3.8951 22.5721 3.72021 18.9738 4.37131 16.751C5.22965 13.7841 7.6818 12.9427 12.8713 11.6885C13.3214 11.1426 13.8387 9.69851 14.4445 9.32233ZM21.2551 15.0001L20.9358 16.1114L19.8723 16.4444L19.3401 15.5557L18.4895 16.3331L19.0217 17.2217L18.383 18.2217L17.2131 18.0001L17.0002 18.8887L18.0637 19.4444V20.5557L17.0002 21.1114L17.2131 22.0001L18.383 21.7774L19.0217 22.7774L18.4895 23.6671L19.3401 24.4444L19.8723 23.5557L20.9358 23.8887L21.2551 25.0001H22.7444L23.0637 23.8887L24.1272 23.5557L24.6594 24.4444L25.511 23.6671L24.9787 22.7774L25.6174 21.7774L26.7873 22.0001L27.0002 21.1114L25.9358 20.5557V19.4444L27.0002 18.8887L26.7873 18.0001L25.6174 18.2217L24.9787 17.2217L25.6174 16.4444L24.6594 15.5557L24.1272 16.4444L23.0637 16.1114L22.7444 15.0001H21.2551Z" fill="black"/>
</svg>
