<svg width="44" height="44" viewBox="0 0 44 44" fill="none" xmlns="http://www.w3.org/2000/svg">
<g clip-path="url(#clip0_82_71)">
<path d="M10.7777 0.0435181C14.2316 -0.253961 17.6161 0.979215 20.0629 3.42633C23.4139 6.77767 24.3012 11.6719 22.7299 15.8433C22.9016 15.988 23.0706 16.1419 23.2377 16.3072L42.2221 34.2203C42.2288 34.2268 42.2353 34.2344 42.2426 34.2408C44.4752 36.4735 44.4752 40.1064 42.2426 42.3394C40.0096 44.5717 36.4035 44.5446 34.1713 42.3121C34.1617 42.3031 34.1528 42.2937 34.144 42.2838L16.3871 23.1519C16.2254 22.9894 16.0746 22.8196 15.933 22.6451C11.7604 24.2194 6.86327 23.3335 3.50919 19.98C1.06298 17.5327 -0.171482 14.1483 0.126373 10.6949C0.160109 10.3034 0.41818 9.96685 0.78653 9.83258C1.15602 9.69759 1.57009 9.78945 1.84805 10.067L7.53555 15.7535L13.8402 13.7574L15.8363 7.4527L10.1488 1.7652C9.87057 1.48716 9.77945 1.07345 9.91348 0.704651C10.0489 0.335072 10.3852 0.0774496 10.7777 0.0435181ZM37.3656 34.7496L37.3129 34.9302L37.1586 35.4673L36.8363 35.5679L36.6195 35.2047L36.4623 34.942L36.2357 35.148L35.725 35.6148L35.5746 35.7525L35.6791 35.9283L35.9184 36.3287L35.7104 36.6548L35.1742 36.5543L34.9408 36.5093L34.8852 36.7418L34.7572 37.275L34.7123 37.4644L34.8842 37.5543L35.3891 37.8179V38.1802L34.8842 38.4449L34.7123 38.5347L34.7572 38.7242L34.8852 39.2574L34.9408 39.4898L35.1742 39.4449L35.7104 39.3433L35.9184 39.6695L35.6791 40.0709L35.5746 40.2466L35.725 40.3843L36.2357 40.8511L36.4623 41.0572L36.6195 40.7945L36.8363 40.4302L37.1586 40.5308L37.3129 41.0689L37.3656 41.2496H38.6352L38.6879 41.0689L38.8412 40.5308L39.1635 40.4302L39.3813 40.7945L39.5385 41.0572L39.765 40.8511L40.2758 40.3843L40.4262 40.2466L40.3217 40.0709L40.0815 39.6695L40.2895 39.3433L40.8266 39.4449L41.06 39.4898L41.1156 39.2574L41.2436 38.7242L41.2885 38.5347L41.1166 38.4449L40.6117 38.1802V37.8179L41.1166 37.5543L41.2885 37.4644L41.2436 37.275L41.1156 36.7418L41.06 36.5093L40.8266 36.5543L40.2895 36.6548L40.0815 36.3287L40.3217 35.9283L40.4262 35.7525L40.2758 35.6148L39.765 35.148L39.5385 34.942L39.3813 35.2047L39.1635 35.5679L38.8412 35.4673L38.6879 34.9302L38.6352 34.7496H37.3656Z" fill="black" fill-opacity="0.6"/>
<path d="M6 36L38 7" stroke="black" stroke-opacity="0.6" stroke-width="4" stroke-linecap="round"/>
</g>
<defs>
<clipPath id="clip0_82_71">
<rect width="44" height="44" fill="white"/>
</clipPath>
</defs>
</svg>
