<svg width="44" height="44" viewBox="0 0 44 44" fill="none" xmlns="http://www.w3.org/2000/svg">
<path d="M35.75 2.75H8.25C6.73122 2.75 5.5 3.98122 5.5 5.5V38.5C5.5 40.0188 6.73122 41.25 8.25 41.25H35.75C37.2688 41.25 38.5 40.0188 38.5 38.5V5.5C38.5 3.98122 37.2688 2.75 35.75 2.75Z" stroke="black" stroke-width="4"/>
<path d="M13.75 14.4375C14.8891 14.4375 15.8125 13.5141 15.8125 12.375C15.8125 11.2359 14.8891 10.3125 13.75 10.3125C12.6109 10.3125 11.6875 11.2359 11.6875 12.375C11.6875 13.5141 12.6109 14.4375 13.75 14.4375Z" fill="black"/>
<path d="M19.25 12.375H33" stroke="black" stroke-width="1.5" stroke-linecap="round"/>
<path d="M13.75 24.0625C14.8891 24.0625 15.8125 23.1391 15.8125 22C15.8125 20.8609 14.8891 19.9375 13.75 19.9375C12.6109 19.9375 11.6875 20.8609 11.6875 22C11.6875 23.1391 12.6109 24.0625 13.75 24.0625Z" fill="black"/>
<path d="M19.25 22H33" stroke="black" stroke-width="1.5" stroke-linecap="round"/>
<path d="M13.75 33.6875C14.8891 33.6875 15.8125 32.7641 15.8125 31.625C15.8125 30.4859 14.8891 29.5625 13.75 29.5625C12.6109 29.5625 11.6875 30.4859 11.6875 31.625C11.6875 32.7641 12.6109 33.6875 13.75 33.6875Z" fill="black"/>
<path d="M19.25 31.625H27.5" stroke="black" stroke-width="1.5" stroke-linecap="round"/>
</svg>
