<svg width="44" height="44" viewBox="0 0 44 44" fill="none" xmlns="http://www.w3.org/2000/svg">
<g clip-path="url(#clip0_82_50)">
<path d="M10.7775 0.0441895C14.2315 -0.253375 17.6159 0.979824 20.0627 3.427C23.4135 6.77842 24.3011 11.6726 22.7297 15.844C22.9013 15.9886 23.0714 16.1416 23.2385 16.3069L42.2219 34.2209C42.2285 34.2274 42.2352 34.2341 42.2424 34.2405C44.475 36.4732 44.475 40.1061 42.2424 42.3391C40.0094 44.5715 36.4033 44.5444 34.1711 42.3118C34.1615 42.3028 34.1525 42.2934 34.1437 42.2834L16.3869 23.1516C16.2251 22.9891 16.0745 22.8193 15.9328 22.6448C11.7602 24.2191 6.86304 23.3333 3.50897 19.9797C1.06276 17.5324 -0.171773 14.148 0.12616 10.6946C0.159908 10.3029 0.418723 9.96644 0.787292 9.83228C1.15667 9.69748 1.56997 9.78926 1.84784 10.0667L7.53534 15.7532L13.84 13.7571L15.8361 7.45239L10.1486 1.76489C9.87052 1.48684 9.78022 1.07306 9.91425 0.704346C10.0498 0.334991 10.3852 0.0781082 10.7775 0.0441895ZM37.3654 34.7502L37.3127 34.9309L37.1584 35.468L36.8361 35.5686L36.6193 35.2053L36.4621 34.9426L36.2355 35.1487L35.7248 35.6155L35.5744 35.7532L35.6789 35.929L35.9182 36.3293L35.7101 36.6555L35.174 36.5549L34.9406 36.51L34.8849 36.7424L34.757 37.2756L34.7121 37.4651L34.884 37.5549L35.3889 37.8186V38.1809L34.884 38.4456L34.7121 38.5354L34.757 38.7249L34.8849 39.2581L34.9406 39.4905L35.174 39.4456L35.7101 39.344L35.9182 39.6702L35.6789 40.0715L35.5744 40.2473L35.7248 40.385L36.2355 40.8518L36.4621 41.0579L36.6193 40.7952L36.8361 40.4309L37.1584 40.5315L37.3127 41.0696L37.3654 41.2502H38.6349L38.6877 41.0696L38.841 40.5315L39.1633 40.4309L39.381 40.7952L39.5383 41.0579L39.7648 40.8518L40.2756 40.385L40.426 40.2473L40.3215 40.0715L40.0812 39.6702L40.2892 39.344L40.8264 39.4456L41.0598 39.4905L41.1154 39.2581L41.2433 38.7249L41.2883 38.5354L41.1164 38.4456L40.6115 38.1809V37.8186L41.1164 37.5549L41.2883 37.4651L41.2433 37.2756L41.1154 36.7424L41.0598 36.51L40.8264 36.5549L40.2892 36.6555L40.0812 36.3293L40.3215 35.929L40.426 35.7532L40.2756 35.6155L39.7648 35.1487L39.5383 34.9426L39.381 35.2053L39.1633 35.5686L38.841 35.468L38.6877 34.9309L38.6349 34.7502H37.3654Z" fill="black"/>
</g>
<defs>
<clipPath id="clip0_82_50">
<rect width="44" height="44" fill="white"/>
</clipPath>
</defs>
</svg>
